<?xml version="1.0" encoding="UTF-8"?>
<svg width="352px" height="80px" viewBox="0 0 352 80" version="1.1" xmlns="http://www.w3.org/2000/svg" xmlns:xlink="http://www.w3.org/1999/xlink">
    <title>ino_logo_text_blue</title>
    <g id="ino_logo_text_blue" stroke="none" stroke-width="1" fill="none" fill-rule="evenodd">
        <path d="M35.0269545,5 C54.3718073,5 70.053909,20.6821017 70.053909,40.0269545 C70.053909,59.3718073 54.3718073,75.053909 35.0269545,75.053909 C15.6821017,75.053909 0,59.3718073 0,40.0269545 C0,20.6821017 15.6821017,5 35.0269545,5 Z M45.5350409,19.0107818 C39.731585,19.0107818 35.0269545,23.7154123 35.0269545,29.5188682 C35.0269545,35.322324 39.731585,40.0269545 45.5350409,40.0269545 C51.3384967,40.0269545 56.0431272,35.322324 56.0431272,29.5188682 C56.0431272,23.7154123 51.3384967,19.0107818 45.5350409,19.0107818 Z" id="logo-icon" fill="#1875F3"></path>
        <path d="M95.16123,26.6102373 C93.4799362,26.6102373 92.1068796,26.1131268 91.0420602,25.1189058 C89.9772408,24.1246849 89.4448311,22.8959778 89.4448311,21.4327846 C89.4448311,19.9320737 89.9772408,18.6846078 91.0420602,17.6903868 C92.1068796,16.6961658 93.4799362,16.1990553 95.16123,16.1990553 C96.8051618,16.1990553 98.1595373,16.6961658 99.2243568,17.6903868 C100.289176,18.6846078 100.821586,19.9320737 100.821586,21.4327846 C100.821586,22.8959778 100.289176,24.1246849 99.2243568,25.1189058 C98.1595373,26.1131268 96.8051618,26.6102373 95.16123,26.6102373 Z M99.9248958,29.8742836 L99.9248958,61.2766597 L90.3415211,61.2766597 L90.3415211,29.8742836 L99.9248958,29.8742836 Z M123.819424,29.5366236 C127.480908,29.5366236 130.404491,30.7278129 132.590173,33.1101915 C134.775855,35.4925701 135.868696,38.7659958 135.868696,42.9304686 L135.868696,61.2766597 L126.341365,61.2766597 L126.341365,44.2248318 C126.341365,42.1238365 125.799614,40.4918134 124.716114,39.3287624 C123.632614,38.1657115 122.175492,37.584186 120.34475,37.584186 C118.514008,37.584186 117.056887,38.1657115 115.973386,39.3287624 C114.889886,40.4918134 114.348135,42.1238365 114.348135,44.2248318 L114.348135,61.2766597 L104.764761,61.2766597 L104.764761,29.8742836 L114.348135,29.8742836 L114.348135,34.0387564 C115.31955,32.6505988 116.627223,31.5532039 118.271154,30.7465718 C119.915086,29.9399397 121.764509,29.5366236 123.819424,29.5366236 Z M154.6633,61.726873 C151.599609,61.726873 148.844155,61.070312 146.396939,59.7571899 C143.949722,58.4440678 142.025575,56.5681792 140.624496,54.1295239 C139.223418,51.6908687 138.522879,48.8395179 138.522879,45.5754717 C138.522879,42.3489432 139.232759,39.5069718 140.652518,37.0495577 C142.072277,34.5921436 144.015106,32.7068755 146.481003,31.3937534 C148.946901,30.0806313 151.711695,29.4240703 154.775386,29.4240703 C157.839077,29.4240703 160.603871,30.0806313 163.069769,31.3937534 C165.535667,32.7068755 167.478495,34.5921436 168.898254,37.0495577 C170.318013,39.5069718 171.027893,42.3489432 171.027893,45.5754717 C171.027893,48.8020001 170.308673,51.6439715 168.870233,54.1013856 C167.431792,56.5587997 165.470283,58.4440678 162.985704,59.7571899 C160.501126,61.070312 157.726991,61.726873 154.6633,61.726873 Z M154.6633,53.3979274 C156.494042,53.3979274 158.053909,52.7226074 159.342901,51.3719676 C160.631893,50.0213278 161.276389,48.0891625 161.276389,45.5754717 C161.276389,43.0617809 160.650574,41.1296155 159.398944,39.7789757 C158.147314,38.4283359 156.606128,37.753016 154.775386,37.753016 C152.907282,37.753016 151.356755,38.4189564 150.123807,39.7508374 C148.890858,41.0827183 148.274383,43.0242631 148.274383,45.5754717 C148.274383,48.0891625 148.881517,50.0213278 150.095785,51.3719676 C151.310053,52.7226074 152.832558,53.3979274 154.6633,53.3979274 Z M183.601709,35.1080129 C184.722572,33.3821954 186.12365,32.0221761 187.804944,31.0279551 C189.486238,30.0337341 191.354342,29.5366236 193.409257,29.5366236 L193.409257,39.722699 L190.77523,39.722699 C188.384056,39.722699 186.590676,40.2385684 185.395089,41.2703072 C184.199503,42.3020459 183.601709,44.1122785 183.601709,46.7010048 L183.601709,61.2766597 L174.018335,61.2766597 L174.018335,29.8742836 L183.601709,29.8742836 L183.601709,35.1080129 Z M225.373995,45.0689817 C225.373995,45.9694083 225.317952,46.9073526 225.205866,47.8828147 L203.517175,47.8828147 C203.666624,49.8337389 204.292439,51.3250704 205.39462,52.3568091 C206.496802,53.3885479 207.851177,53.9044173 209.457747,53.9044173 C211.84892,53.9044173 213.511533,52.8914374 214.445585,50.8654777 L224.645434,50.8654777 C224.122365,52.9289552 223.178973,54.786085 221.815257,56.436867 C220.45154,58.087649 218.742225,59.3820122 216.68731,60.3199565 C214.632396,61.2579008 212.334627,61.726873 209.794006,61.726873 C206.730315,61.726873 204.002883,61.070312 201.611709,59.7571899 C199.220536,58.4440678 197.352431,56.5681792 196.007396,54.1295239 C194.662361,51.6908687 193.989844,48.8395179 193.989844,45.5754717 C193.989844,42.3114254 194.653021,39.4600746 195.979375,37.0214194 C197.305729,34.5827641 199.164493,32.7068755 201.555666,31.3937534 C203.946839,30.0806313 206.692953,29.4240703 209.794006,29.4240703 C212.820335,29.4240703 215.510405,30.0618725 217.864216,31.3374767 C220.218027,32.613081 222.05811,34.432693 223.384464,36.7963127 C224.710818,39.1599324 225.373995,41.9174888 225.373995,45.0689817 Z M215.566448,42.536532 C215.566448,40.88575 215.006017,39.5726279 213.885154,38.5971658 C212.764291,37.6217037 211.363213,37.1339727 209.681919,37.1339727 C208.07535,37.1339727 206.720974,37.6029449 205.618793,38.5408892 C204.516611,39.4788335 203.834753,40.8107145 203.573219,42.536532 L215.566448,42.536532 Z M226.402927,45.519195 C226.402927,42.2926665 227.010061,39.4600746 228.224329,37.0214194 C229.438597,34.5827641 231.091869,32.7068755 233.184146,31.3937534 C235.276422,30.0806313 237.611553,29.4240703 240.189537,29.4240703 C242.3939,29.4240703 244.327387,29.8742836 245.99,30.7747101 C247.652613,31.6751367 248.932264,32.8569466 249.828954,34.3201397 L249.828954,29.8742836 L259.412329,29.8742836 L259.412329,61.2766597 L249.828954,61.2766597 L249.828954,56.8308036 C248.894902,58.2939967 247.59657,59.4758066 245.933957,60.3762332 C244.271344,61.2766597 242.337856,61.726873 240.133493,61.726873 C237.592872,61.726873 235.276422,61.0609325 233.184146,59.7290516 C231.091869,58.3971706 229.438597,56.5025231 228.224329,54.0451089 C227.010061,51.5876948 226.402927,48.7457235 226.402927,45.519195 Z M249.828954,45.5754717 C249.828954,43.1743342 249.165777,41.2796866 247.839423,39.891529 C246.513069,38.5033714 244.897159,37.8092926 242.991693,37.8092926 C241.086227,37.8092926 239.470316,38.493992 238.143962,39.8633907 C236.817608,41.2327894 236.154431,43.1180575 236.154431,45.519195 C236.154431,47.9203325 236.817608,49.8243595 238.143962,51.231276 C239.470316,52.6381924 241.086227,53.3416507 242.991693,53.3416507 C244.897159,53.3416507 246.513069,52.6475719 247.839423,51.2594143 C249.165777,49.8712567 249.828954,47.9766091 249.828954,45.5754717 Z M262.346728,45.519195 C262.346728,42.2926665 262.953862,39.4600746 264.168129,37.0214194 C265.382397,34.5827641 267.035669,32.7068755 269.127946,31.3937534 C271.220223,30.0806313 273.555353,29.4240703 276.133337,29.4240703 C278.188252,29.4240703 280.065696,29.8555247 281.765671,30.7184335 C283.465646,31.5813423 284.801341,32.7443932 285.772755,34.2075864 L285.772755,19.6319315 L295.35613,19.6319315 L295.35613,61.2766597 L285.772755,61.2766597 L285.772755,56.7745269 C284.876065,58.2752379 283.596413,59.4758066 281.933801,60.3762332 C280.271188,61.2766597 278.3377,61.726873 276.133337,61.726873 C273.555353,61.726873 271.220223,61.0609325 269.127946,59.7290516 C267.035669,58.3971706 265.382397,56.5025231 264.168129,54.0451089 C262.953862,51.5876948 262.346728,48.7457235 262.346728,45.519195 Z M285.772755,45.5754717 C285.772755,43.1743342 285.109578,41.2796866 283.783224,39.891529 C282.45687,38.5033714 280.84096,37.8092926 278.935493,37.8092926 C277.030027,37.8092926 275.414117,38.493992 274.087763,39.8633907 C272.761409,41.2327894 272.098232,43.1180575 272.098232,45.519195 C272.098232,47.9203325 272.761409,49.8243595 274.087763,51.231276 C275.414117,52.6381924 277.030027,53.3416507 278.935493,53.3416507 C280.84096,53.3416507 282.45687,52.6475719 283.783224,51.2594143 C285.109578,49.8712567 285.772755,47.9766091 285.772755,45.5754717 Z M329.674679,45.0689817 C329.674679,45.9694083 329.618636,46.9073526 329.50655,47.8828147 L307.81786,47.8828147 C307.967308,49.8337389 308.593123,51.3250704 309.695305,52.3568091 C310.797486,53.3885479 312.151862,53.9044173 313.758431,53.9044173 C316.149605,53.9044173 317.812218,52.8914374 318.74627,50.8654777 L328.946119,50.8654777 C328.42305,52.9289552 327.479657,54.786085 326.115941,56.436867 C324.752225,58.087649 323.042909,59.3820122 320.987995,60.3199565 C318.93308,61.2579008 316.635312,61.726873 314.09469,61.726873 C311.030999,61.726873 308.303567,61.070312 305.912394,59.7571899 C303.52122,58.4440678 301.653116,56.5681792 300.308081,54.1295239 C298.963046,51.6908687 298.290528,48.8395179 298.290528,45.5754717 C298.290528,42.3114254 298.953705,39.4600746 300.280059,37.0214194 C301.606413,34.5827641 303.465177,32.7068755 305.85635,31.3937534 C308.247524,30.0806313 310.993637,29.4240703 314.09469,29.4240703 C317.121019,29.4240703 319.811089,30.0618725 322.1649,31.3374767 C324.518712,32.613081 326.358794,34.432693 327.685148,36.7963127 C329.011502,39.1599324 329.674679,41.9174888 329.674679,45.0689817 Z M319.867132,42.536532 C319.867132,40.88575 319.306701,39.5726279 318.185838,38.5971658 C317.064976,37.6217037 315.663898,37.1339727 313.982604,37.1339727 C312.376034,37.1339727 311.021659,37.6029449 309.919477,38.5408892 C308.817296,39.4788335 308.135438,40.8107145 307.873903,42.536532 L319.867132,42.536532 Z M342.192453,35.1080129 C343.313315,33.3821954 344.714393,32.0221761 346.395687,31.0279551 C348.076981,30.0337341 349.945085,29.5366236 352,29.5366236 L352,39.722699 L349.365973,39.722699 C346.9748,39.722699 345.18142,40.2385684 343.985833,41.2703072 C342.790246,42.3020459 342.192453,44.1122785 342.192453,46.7010048 L342.192453,61.2766597 L332.609078,61.2766597 L332.609078,29.8742836 L342.192453,29.8742836 L342.192453,35.1080129 Z" id="Combined-Shape" fill="#081425" fill-rule="nonzero"></path>
    </g>
</svg>